<svg width="20" height="20" viewBox="0 0 20 20" xmlns="http://www.w3.org/2000/svg" fill="currentColor">
  <path d="M13.27 10.44c.02 2.23 1.97 2.98 1.99 2.99-.02.06-.31 1.06-1.02 2.1-.61.9-1.24 1.81-2.24 1.83-.98.02-1.3-.59-2.43-.59-1.13 0-1.48.57-2.41.6-1 .04-1.76-.98-2.37-1.88-1.29-1.86-2.28-5.25-.95-7.54.66-1.14 1.84-1.86 3.13-1.88 1.22-.02 2.37.66 3.01.66.63 0 2.08-.81 3.5-.69.6.02 2.28.24 3.36 1.81-.09.06-2 1.17-1.97 3.59z"/>
  <path d="M11.82 3.13c.64-.78 1.07-1.86.96-2.94-.93.04-2.05.62-2.72 1.4-.6.7-1.11 1.8-.97 2.86 1.03.08 2.09-.53 2.73-1.32z"/>
</svg>
