<svg width="20" height="20" viewBox="0 0 20 20" xmlns="http://www.w3.org/2000/svg">
  <path fill="#EA4335" d="M19.6 10.23c0-.64-.06-1.25-.17-1.84H10v3.48h5.37a4.6 4.6 0 01-2 3.01v2.5h3.24c1.89-1.74 2.99-4.3 2.99-7.15z"/>
  <path fill="#34A853" d="M10 20c2.7 0 4.97-.9 6.62-2.45l-3.24-2.5c-.9.6-2.05.96-3.38.96-2.6 0-4.8-1.76-5.59-4.12H1.05v2.59A10 10 0 0010 20z"/>
  <path fill="#4A90E2" d="M4.41 11.89A5.99 5.99 0 014.1 10c0-.66.11-1.3.31-1.89V5.52H1.05A10 10 0 000 10c0 1.61.38 3.14 1.05 4.48l3.36-2.59z"/>
  <path fill="#FBBC05" d="M10 4.02c1.47 0 2.79.51 3.83 1.51l2.87-2.87A9.98 9.98 0 0010 0 10 10 0 001.05 5.52l3.36 2.59C5.2 5.74 7.4 4.02 10 4.02z"/>
</svg>
